<?xml version="1.0" encoding="UTF-8" standalone="no"?>
<svg
   xmlns:dc="http://purl.org/dc/elements/1.1/"
   xmlns:cc="http://web.resource.org/cc/"
   xmlns:rdf="http://www.w3.org/1999/02/22-rdf-syntax-ns#"
   xmlns:svg="http://www.w3.org/2000/svg"
   xmlns="http://www.w3.org/2000/svg"
   xmlns:xlink="http://www.w3.org/1999/xlink"
   xmlns:sodipodi="http://sodipodi.sourceforge.net/DTD/sodipodi-0.dtd"
   xmlns:inkscape="http://www.inkscape.org/namespaces/inkscape"
   width="600"
   height="600"
   id="lis32"
   version="1.0">

  <path id="curve"
     fill="none"
     stroke="red"
     stroke-width="0.01"
     transform="translate(300,300) scale(280,-280)"
     stroke-linejoin="round"
     stroke-linecap="round"
     d="M 0,0
          C 0.222255,0.148170 0.445357,0.296899 0.625079,0.435105
          C 0.749192,0.530549 0.857646,0.624839 0.925646,0.709292
          C 0.966987,0.760635 1.000000,0.816562 1.000000,0.866025
          C 1.000000,0.912655 0.970643,0.944841 0.923880,0.965926
          C 0.872246,0.989207 0.797076,1.000000 0.707107,1.000000
          C 0.518444,1.000000 0.260006,0.952526 0.001686,0.866587
          C -0.157748,0.813546 -0.317333,0.745790 -0.460879,0.665284
          C -0.596947,0.588971 -0.717317,0.501923 -0.809648,0.406082
          C -0.932057,0.279021 -1.000000,0.141898 -1.000000,0.000000
          C -1.000000,-0.141898 -0.932057,-0.279021 -0.809648,-0.406082
          C -0.717317,-0.501923 -0.596947,-0.588971 -0.460879,-0.665284
          C -0.317333,-0.745790 -0.157748,-0.813546 0.001686,-0.866587
          C 0.260006,-0.952526 0.518444,-1.000000 0.707107,-1.000000
          C 0.797076,-1.000000 0.872246,-0.989207 0.923880,-0.965926
          C 0.970643,-0.944841 1.000000,-0.912655 1.000000,-0.866025
          C 1.000000,-0.816562 0.966987,-0.760635 0.925646,-0.709292
          C 0.857646,-0.624839 0.749192,-0.530549 0.625079,-0.435105
          C 0.445357,-0.296899 0.222255,-0.148170 0.000000,0.000000
          C -0.222255,0.148170 -0.445357,0.296899 -0.625079,0.435105
          C -0.749192,0.530549 -0.857646,0.624839 -0.925646,0.709292
          C -0.966987,0.760635 -1.000000,0.816562 -1.000000,0.866025
          C -1.000000,0.912655 -0.970643,0.944841 -0.923880,0.965926
          C -0.872246,0.989207 -0.797076,1.000000 -0.707107,1.000000
          C -0.518444,1.000000 -0.260006,0.952526 -0.001686,0.866587
          C 0.157748,0.813546 0.317333,0.745790 0.460879,0.665284
          C 0.596947,0.588971 0.717317,0.501923 0.809648,0.406082
          C 0.932057,0.279021 1.000000,0.141898 1.000000,0.000000
          C 1.000000,-0.141898 0.932057,-0.279021 0.809648,-0.406082
          C 0.717317,-0.501923 0.596947,-0.588971 0.460879,-0.665284
          C 0.317333,-0.745790 0.157748,-0.813546 -0.001686,-0.866587
          C -0.260006,-0.952526 -0.518444,-1.000000 -0.707107,-1.000000
          C -0.797076,-1.000000 -0.872246,-0.989207 -0.923880,-0.965926
          C -0.970643,-0.944841 -1.000000,-0.912655 -1.000000,-0.866025
          C -1.000000,-0.816562 -0.966987,-0.760635 -0.925646,-0.709292
          C -0.857646,-0.624839 -0.749192,-0.530549 -0.625079,-0.435105
          C -0.445357,-0.296899 -0.222255,-0.148170 -0.000000,0.000000 Z"/>

</svg>
